<?xml version="1.0" encoding="utf-8"?>
<!-- Generator: Adobe Illustrator 16.0.0, SVG Export Plug-In . SVG Version: 6.00 Build 0)  -->
<!DOCTYPE svg PUBLIC "-//W3C//DTD SVG 1.1//EN" "http://www.w3.org/Graphics/SVG/1.1/DTD/svg11.dtd">
<svg version="1.1" xmlns="http://www.w3.org/2000/svg" xmlns:xlink="http://www.w3.org/1999/xlink" x="0px" y="0px" width="256px"
	 height="256px" viewBox="0 0 256 256" enable-background="new 0 0 256 256" xml:space="preserve">
<g id="round_x5F_white" display="none">
	<g id="_x32_2" display="inline">
		<g>
			<path fill-rule="evenodd" clip-rule="evenodd" fill="#FFFFFF" d="M128,0C57.308,0,0,57.308,0,128s57.308,128,128,128
				s128-57.308,128-128S198.692,0,128,0z M181.996,155.604c0,10.438-24.176,24.899-54,24.899c-20.909,0-39.03-7.107-48-14.954
				v-4.676c3.582-2.073,6-5.933,6-10.37c0-4.438-2.417-8.306-6-10.381v-7.619c0,0,0.388-0.194,1.354-0.677l46.982,18.677
				l53.663-21.601C181.996,128.903,181.996,148.011,181.996,155.604z M127.996,144.504l-40-16l22-11c24-12,18-15-6-3l-2.956,1.478
				c-6.697,3.349-11.851,5.926-15.761,7.881l-11.283,5.642v12.522c3.494,1.236,6,4.56,6,8.478c0,4.342-3.072,7.963-7.162,8.812
				l-4.838,24.188l-12-6l9.822-19.646c-2.31-1.629-3.822-4.313-3.822-7.354c0-3.918,2.506-7.241,6-8.478v-18.522l3-1.8l-33-13.2
				l90-36l90,36L127.996,144.504z"/>
		</g>
	</g>
</g>
<g id="round_x5F_blue">
	<g id="_x32_2_8_">
		<g>
			<path fill-rule="evenodd" clip-rule="evenodd" fill="#00A3F5" d="M128,0C57.308,0,0,57.308,0,128s57.308,128,128,128
				s128-57.308,128-128S198.692,0,128,0z M181.996,155.604c0,10.438-24.176,24.899-54,24.899c-20.909,0-39.03-7.107-48-14.954
				v-4.676c3.582-2.073,6-5.933,6-10.37c0-4.438-2.417-8.306-6-10.381v-7.619c0,0,0.388-0.194,1.354-0.677l46.982,18.677
				l53.663-21.601C181.996,128.903,181.996,148.011,181.996,155.604z M127.996,144.504l-40-16l22-11c24-12,18-15-6-3l-2.956,1.478
				c-6.697,3.349-11.851,5.926-15.761,7.881l-11.283,5.642v12.522c3.494,1.236,6,4.56,6,8.478c0,4.342-3.072,7.963-7.162,8.812
				l-4.838,24.188l-12-6l9.822-19.646c-2.31-1.629-3.822-4.313-3.822-7.354c0-3.918,2.506-7.241,6-8.478v-18.522l3-1.8l-33-13.2
				l90-36l90,36L127.996,144.504z"/>
		</g>
	</g>
</g>
<g id="round_x5F_black" display="none">
	<g id="_x32_2_10_" display="inline">
		<g>
			<path fill-rule="evenodd" clip-rule="evenodd" d="M128,0C57.308,0,0,57.308,0,128s57.308,128,128,128s128-57.308,128-128
				S198.692,0,128,0z M181.996,155.604c0,10.438-24.176,24.899-54,24.899c-20.909,0-39.03-7.107-48-14.954v-4.676
				c3.582-2.073,6-5.933,6-10.37c0-4.438-2.417-8.306-6-10.381v-7.619c0,0,0.388-0.194,1.354-0.677l46.982,18.677l53.663-21.601
				C181.996,128.903,181.996,148.011,181.996,155.604z M127.996,144.504l-40-16l22-11c24-12,18-15-6-3l-2.956,1.478
				c-6.697,3.349-11.851,5.926-15.761,7.881l-11.283,5.642v12.522c3.494,1.236,6,4.56,6,8.478c0,4.342-3.072,7.963-7.162,8.812
				l-4.838,24.188l-12-6l9.822-19.646c-2.31-1.629-3.822-4.313-3.822-7.354c0-3.918,2.506-7.241,6-8.478v-18.522l3-1.8l-33-13.2
				l90-36l90,36L127.996,144.504z"/>
		</g>
	</g>
</g>
<g id="base_x5F_white" display="none">
	<g id="_x32_2_2_" display="inline">
		<g>
			<path fill-rule="evenodd" clip-rule="evenodd" fill="#FFFFFF" d="M74,142.03v-12.522l11.283-5.642
				c3.91-1.955,9.063-4.532,15.761-7.881l2.956-1.478c24-12,30-9,6,3l-22,11l40,16l90-36l-90-36l-90,36l33,13.2l-3,1.8v18.522
				c-3.494,1.236-6,4.56-6,8.478c0,3.042,1.513,5.726,3.822,7.354L56,177.508l12,6l4.838-24.188c4.09-0.849,7.162-4.47,7.162-8.812
				C80,146.59,77.494,143.267,74,142.03z M81.354,131.831c-0.967,0.482-1.354,0.677-1.354,0.677v7.619c3.583,2.075,6,5.942,6,10.381
				c0,4.438-2.418,8.297-6,10.37v4.676c8.97,7.847,27.091,14.954,48,14.954c29.824,0,54-14.461,54-24.899c0-7.594,0-26.701,0-26.701
				l-53.663,21.601L81.354,131.831z"/>
		</g>
	</g>
</g>
<g id="base_x5F_blue" display="none">
	<g id="_x32_2_4_" display="inline">
		<g>
			<path fill-rule="evenodd" clip-rule="evenodd" fill="#00A3F5" d="M81.354,131.831c-0.967,0.482-1.354,0.677-1.354,0.677v7.619
				c3.583,2.075,6,5.942,6,10.381c0,4.438-2.418,8.297-6,10.37v4.676c8.97,7.847,27.091,14.954,48,14.954
				c29.824,0,54-14.461,54-24.899c0-7.594,0-26.701,0-26.701l-53.663,21.601L81.354,131.831z M74,142.03v-12.522l11.283-5.642
				c3.91-1.955,9.063-4.532,15.761-7.881l2.956-1.478c24-12,30-9,6,3l-22,11l40,16l90-36l-90-36l-90,36l33,13.2l-3,1.8v18.522
				c-3.494,1.236-6,4.56-6,8.478c0,3.042,1.513,5.726,3.822,7.354L56,177.508l12,6l4.838-24.188c4.09-0.849,7.162-4.47,7.162-8.812
				C80,146.59,77.494,143.267,74,142.03z"/>
		</g>
	</g>
</g>
<g id="base_x5F_black" display="none">
	<g id="_x32_2_6_" display="inline">
		<g>
			<path fill-rule="evenodd" clip-rule="evenodd" d="M81.354,131.831c-0.967,0.482-1.354,0.677-1.354,0.677v7.619
				c3.583,2.075,6,5.942,6,10.381c0,4.438-2.418,8.297-6,10.37v4.676c8.97,7.847,27.091,14.954,48,14.954
				c29.824,0,54-14.461,54-24.899c0-7.594,0-26.701,0-26.701l-53.663,21.601L81.354,131.831z M74,142.03v-12.522l11.283-5.642
				c3.91-1.955,9.063-4.532,15.761-7.881l2.956-1.478c24-12,30-9,6,3c-10.377,5.188-17.383,8.691-22,11l40,16l90-36l-90-36l-90,36
				l33,13.2l-3,1.8v18.522c-3.494,1.236-6,4.56-6,8.478c0,3.042,1.513,5.726,3.822,7.354L56,177.508l12,6l4.838-24.188
				c4.09-0.849,7.162-4.47,7.162-8.812C80,146.59,77.494,143.267,74,142.03z"/>
		</g>
	</g>
</g>
</svg>
